<?xml version="1.0" encoding="UTF-8" standalone="no"?><svg width="22" height="23" viewBox="0 0 22 23" fill="none" xmlns="http://www.w3.org/2000/svg">
<g clip-path="url(#clip0_1199_209)">
<path d="M5 11C5 10.4696 4.78926 9.96089 4.41418 9.58582C4.03911 9.21074 3.53043 9 3 9C2.46957 9 1.96083 9.21074 1.58575 9.58582C1.21068 9.96089 1 10.4696 1 11V15C1 15.5304 1.21068 16.0392 1.58575 16.4142C1.96083 16.7893 2.46957 17 3 17C3.53043 17 4.03911 16.7893 4.41418 16.4142C4.78926 16.0392 5 15.5304 5 15V11Z" stroke="#FAD87A" stroke-width="2" stroke-linecap="round" stroke-linejoin="round"/>
<path d="M21 11C21 10.4696 20.7893 9.96089 20.4142 9.58582C20.0391 9.21074 19.5304 9 19 9C18.4696 9 17.9608 9.21074 17.5858 9.58582C17.2107 9.96089 17 10.4696 17 11V15C17 15.5304 17.2107 16.0392 17.5858 16.4142C17.9608 16.7893 18.4696 17 19 17C19.5304 17 20.0391 16.7893 20.4142 16.4142C20.7893 16.0392 21 15.5304 21 15V11Z" stroke="#FAD87A" stroke-width="2" stroke-linecap="round" stroke-linejoin="round"/>
<path d="M3 9C3 6.87827 3.84285 4.84349 5.34314 3.3432C6.84343 1.84291 8.87827 1 11 1C13.1217 1 15.1566 1.84291 16.6569 3.3432C18.1572 4.84349 19 6.87827 19 9" stroke="#FAD87A" stroke-width="2" stroke-linecap="round" stroke-linejoin="round"/>
<path d="M19 17V17.1201C18.9987 17.9594 18.7333 18.777 18.2416 19.4572C17.7498 20.1373 17.0565 20.6456 16.2599 20.91L13 22" stroke="#FAD87A" stroke-width="2" stroke-linejoin="round"/>
</g>
<defs>
<clipPath id="clip0_1199_209">
<rect width="22" height="22.95" fill="white"/>
</clipPath>
</defs>
</svg>
