<?xml version="1.0" encoding="UTF-8" standalone="no"?><svg width="22" height="22" viewBox="0 0 22 22" fill="none" xmlns="http://www.w3.org/2000/svg">
<g clip-path="url(#clip0_1199_217)">
<path d="M3 9H6V21H3C2.46957 21 1.96086 20.7893 1.58579 20.4142C1.21071 20.0391 1 19.5304 1 19V11C1 10.4696 1.21071 9.96086 1.58579 9.58579C1.96086 9.21071 2.46957 9 3 9V9Z" stroke="#FAD87A" stroke-width="2" stroke-linejoin="round"/>
<path d="M6 9L8.58008 2.17004C8.70199 1.82742 8.92687 1.53098 9.22412 1.32147C9.52138 1.11196 9.87632 0.999621 10.24 1C10.472 0.999997 10.7016 1.04588 10.9158 1.13495C11.13 1.22402 11.3245 1.35455 11.488 1.51904C11.6516 1.68354 11.781 1.87876 11.8689 2.09345C11.9568 2.30813 12.0013 2.53805 12 2.77002V9H19C19.3069 9.00019 19.6096 9.07103 19.8848 9.20697C20.1599 9.34291 20.4001 9.5403 20.5867 9.78394C20.7733 10.0276 20.9011 10.3109 20.9607 10.6119C21.0202 10.913 21.0097 11.2237 20.9299 11.52L19 19.52C18.8838 19.9427 18.6322 20.3155 18.2834 20.5811C17.9347 20.8467 17.5084 20.9904 17.0701 20.9901H6" stroke="#FAD87A" stroke-width="2" stroke-linejoin="round"/>
</g>
<defs>
<clipPath id="clip0_1199_217">
<rect width="22" height="22" fill="white"/>
</clipPath>
</defs>
</svg>
