<?xml version="1.0" encoding="UTF-8" standalone="no"?><svg width="178" height="34" viewBox="0 0 178 34" fill="none" xmlns="http://www.w3.org/2000/svg">
<path d="M53.28 5.42C50.1067 5.42 47.8267 7.48667 46.44 11.62C46.4133 11.7 46.3333 11.74 46.2 11.74C46.0667 11.7133 46 11.66 46 11.58C46.1067 10.5133 46.2267 9.14 46.36 7.46C46.4933 5.75333 46.56 4.47333 46.56 3.62C46.56 3.48667 46.6267 3.42 46.76 3.42C46.92 3.42 47 3.48667 47 3.62C47 4.20667 47.76 4.5 49.28 4.5C51.5733 4.58 54.2533 4.62 57.32 4.62C58.8933 4.62 60.56 4.59333 62.32 4.54L65.04 4.5C66.0533 4.5 66.7867 4.43333 67.24 4.3C67.72 4.16667 68.0267 3.9 68.16 3.5C68.1867 3.39333 68.2667 3.34 68.4 3.34C68.56 3.34 68.64 3.39333 68.64 3.5C68.56 4.3 68.4667 5.58 68.36 7.34C68.28 9.1 68.24 10.5133 68.24 11.58C68.24 11.66 68.1733 11.7 68.04 11.7C67.9067 11.7 67.8267 11.66 67.8 11.58C67.4 9.52667 66.6533 7.99333 65.56 6.98C64.4667 5.94 63.12 5.42 61.52 5.42C60.7467 5.42 60.2267 5.59333 59.96 5.94C59.72 6.26 59.6 6.88667 59.6 7.82V26.26C59.6 27.0867 59.68 27.6867 59.84 28.06C60 28.4333 60.3067 28.6867 60.76 28.82C61.2133 28.9533 61.9333 29.02 62.92 29.02C63 29.02 63.04 29.1 63.04 29.26C63.04 29.42 63 29.5 62.92 29.5C61.96 29.5 61.2 29.4867 60.64 29.46L57.32 29.42L54.08 29.46C53.52 29.4867 52.7467 29.5 51.76 29.5C51.68 29.5 51.64 29.42 51.64 29.26C51.64 29.1 51.68 29.02 51.76 29.02C52.72 29.02 53.4267 28.9533 53.88 28.82C54.36 28.6867 54.68 28.4333 54.84 28.06C55.0267 27.66 55.12 27.06 55.12 26.26V7.74C55.12 6.83333 55 6.22 54.76 5.9C54.52 5.58 54.0267 5.42 53.28 5.42Z" fill="white"/>
<path d="M78.7819 13.66C79.3952 13.66 79.9819 13.8867 80.5419 14.34C81.1285 14.7667 81.4219 15.2867 81.4219 15.9C81.4219 16.46 81.2485 16.9267 80.9019 17.3C80.5552 17.6467 80.1019 17.82 79.5419 17.82C79.1419 17.82 78.8085 17.74 78.5419 17.58C78.3019 17.42 78.0485 17.18 77.7819 16.86C77.5419 16.5933 77.3285 16.4067 77.1419 16.3C76.9819 16.1667 76.7819 16.1 76.5419 16.1C76.2752 16.1 75.9819 16.2067 75.6619 16.42C75.3685 16.6067 74.9019 17.02 74.2619 17.66V26.26C74.2619 27.3267 74.5152 28.06 75.0219 28.46C75.5285 28.8333 76.4619 29.02 77.8219 29.02C77.9285 29.02 77.9819 29.1 77.9819 29.26C77.9819 29.42 77.9285 29.5 77.8219 29.5C76.8885 29.5 76.1552 29.4867 75.6219 29.46L72.3819 29.42L70.0219 29.46C69.6219 29.4867 69.0752 29.5 68.3819 29.5C68.3019 29.5 68.2619 29.42 68.2619 29.26C68.2619 29.1 68.3019 29.02 68.3819 29.02C69.2085 29.02 69.7685 28.8333 70.0619 28.46C70.3552 28.06 70.5019 27.3267 70.5019 26.26V18.74C70.5019 17.9133 70.3952 17.3133 70.1819 16.94C69.9952 16.54 69.6885 16.34 69.2619 16.34C68.8085 16.34 68.1685 16.5267 67.3419 16.9H67.2619C67.1819 16.9 67.1152 16.8333 67.0619 16.7C67.0352 16.5667 67.0485 16.4867 67.1019 16.46L72.6619 13.74C72.8219 13.6867 72.9152 13.66 72.9419 13.66C73.2352 13.66 73.5019 13.94 73.7419 14.5C74.0085 15.0333 74.1685 15.7667 74.2219 16.7C75.3152 15.58 76.2085 14.7933 76.9019 14.34C77.6219 13.8867 78.2485 13.66 78.7819 13.66Z" fill="white"/>
<path d="M100.909 26.9C100.989 26.9 101.056 26.9667 101.109 27.1C101.189 27.2333 101.189 27.3133 101.109 27.34L95.5894 30.02C95.536 30.0467 95.4694 30.06 95.3894 30.06C95.1494 30.06 94.9227 29.82 94.7094 29.34C94.5227 28.86 94.4027 28.2067 94.3494 27.38C93.4694 28.2067 92.5894 28.86 91.7094 29.34C90.8294 29.7933 89.856 30.02 88.7894 30.02C87.696 30.02 86.6827 29.7533 85.7494 29.22C84.8427 28.66 84.1227 27.8467 83.5894 26.78C83.056 25.7133 82.7894 24.4333 82.7894 22.94C82.7894 21.0467 83.2294 19.3933 84.1094 17.98C84.9894 16.54 86.1494 15.4467 87.5894 14.7C89.0294 13.9533 90.576 13.58 92.2294 13.58C93.6694 13.58 94.9627 13.9267 96.1094 14.62C96.7227 14.3533 97.2427 14.0067 97.6694 13.58C97.696 13.5533 97.736 13.54 97.7894 13.54C97.8427 13.54 97.896 13.5667 97.9494 13.62C98.0294 13.6467 98.0694 13.6867 98.0694 13.74V25.14C98.0694 25.94 98.1494 26.5133 98.3094 26.86C98.496 27.18 98.7894 27.34 99.1894 27.34C99.536 27.34 100.083 27.1933 100.829 26.9H100.909ZM90.8294 27.9C91.896 27.9 93.056 27.4733 94.3094 26.62V26.22V17.98C94.3094 16.94 94.016 16.0867 93.4294 15.42C92.8694 14.7533 92.1227 14.42 91.1894 14.42C89.856 14.42 88.8027 15.0867 88.0294 16.42C87.2827 17.7533 86.9094 19.4733 86.9094 21.58C86.9094 23.58 87.2427 25.14 87.9094 26.26C88.6027 27.3533 89.576 27.9 90.8294 27.9Z" fill="white"/>
<path d="M118.81 14.06C118.863 14.06 118.89 14.14 118.89 14.3C118.89 14.46 118.863 14.54 118.81 14.54C118.037 14.54 117.343 14.8333 116.73 15.42C116.143 16.0067 115.583 16.9133 115.05 18.14L110.13 29.5C110.103 29.6333 109.957 29.7 109.69 29.7C109.477 29.7 109.33 29.6333 109.25 29.5L103.13 17.38C102.57 16.2067 102.077 15.4467 101.65 15.1C101.223 14.7267 100.703 14.54 100.09 14.54C100.01 14.54 99.97 14.46 99.97 14.3C99.97 14.14 100.01 14.06 100.09 14.06C100.57 14.06 100.97 14.0733 101.29 14.1L103.97 14.14L107.05 14.1C107.503 14.0733 108.13 14.06 108.93 14.06C109.01 14.06 109.05 14.14 109.05 14.3C109.05 14.46 109.01 14.54 108.93 14.54C107.383 14.54 106.61 14.8467 106.61 15.46C106.61 15.62 106.677 15.8333 106.81 16.1L111.29 24.5L113.93 18.1C114.143 17.54 114.25 17.06 114.25 16.66C114.25 15.9933 114.023 15.4733 113.57 15.1C113.117 14.7267 112.49 14.54 111.69 14.54C111.637 14.54 111.61 14.46 111.61 14.3C111.61 14.14 111.637 14.06 111.69 14.06C112.41 14.06 112.957 14.0733 113.33 14.1L115.73 14.14L117.33 14.1C117.65 14.0733 118.143 14.06 118.81 14.06Z" fill="white"/>
<path d="M133.787 26.86C133.841 26.86 133.894 26.9133 133.947 27.02C134.027 27.1267 134.041 27.2067 133.987 27.26C133.001 28.22 132.001 28.9133 130.987 29.34C129.974 29.7667 128.867 29.98 127.667 29.98C125.987 29.98 124.534 29.6333 123.307 28.94C122.081 28.22 121.147 27.2733 120.507 26.1C119.867 24.9 119.547 23.62 119.547 22.26C119.547 20.7133 119.947 19.2867 120.747 17.98C121.547 16.6467 122.641 15.6067 124.027 14.86C125.414 14.0867 126.961 13.7 128.667 13.7C130.321 13.7 131.587 14.06 132.467 14.78C133.347 15.4733 133.787 16.4333 133.787 17.66C133.787 18.4333 133.641 18.82 133.347 18.82H130.907L123.707 18.9C123.627 19.4067 123.587 19.9667 123.587 20.58C123.587 22.8733 124.121 24.6867 125.187 26.02C126.281 27.3533 127.774 28.02 129.667 28.02C130.334 28.02 131.027 27.9267 131.747 27.74C132.467 27.5533 133.121 27.2733 133.707 26.9L133.787 26.86ZM127.187 14.5C126.387 14.5 125.694 14.82 125.107 15.46C124.521 16.1 124.094 16.98 123.827 18.1L129.507 17.98C129.427 15.66 128.654 14.5 127.187 14.5Z" fill="white"/>
<path d="M136.386 29.5C136.333 29.5 136.306 29.42 136.306 29.26C136.306 29.1 136.333 29.02 136.386 29.02C137.213 29.02 137.773 28.8333 138.066 28.46C138.386 28.06 138.546 27.3267 138.546 26.26L138.586 5.94C138.586 5.00667 138.493 4.34 138.306 3.94C138.146 3.54 137.853 3.34 137.426 3.34C137.079 3.34 136.573 3.48667 135.906 3.78H135.866C135.786 3.78 135.706 3.71333 135.626 3.58C135.573 3.42 135.573 3.32667 135.626 3.3L141.506 0.539999L141.666 0.5C141.799 0.5 141.946 0.566667 142.106 0.7C142.266 0.806667 142.346 0.913334 142.346 1.02V26.26C142.346 27.3267 142.493 28.06 142.786 28.46C143.079 28.8333 143.639 29.02 144.466 29.02C144.573 29.02 144.626 29.1 144.626 29.26C144.626 29.42 144.573 29.5 144.466 29.5C143.799 29.5 143.266 29.4867 142.866 29.46L140.426 29.42L138.026 29.46C137.626 29.4867 137.079 29.5 136.386 29.5Z" fill="white"/>
<path d="M161.209 26.86C161.262 26.86 161.316 26.9133 161.369 27.02C161.449 27.1267 161.462 27.2067 161.409 27.26C160.422 28.22 159.422 28.9133 158.409 29.34C157.396 29.7667 156.289 29.98 155.089 29.98C153.409 29.98 151.956 29.6333 150.729 28.94C149.502 28.22 148.569 27.2733 147.929 26.1C147.289 24.9 146.969 23.62 146.969 22.26C146.969 20.7133 147.369 19.2867 148.169 17.98C148.969 16.6467 150.062 15.6067 151.449 14.86C152.836 14.0867 154.382 13.7 156.089 13.7C157.742 13.7 159.009 14.06 159.889 14.78C160.769 15.4733 161.209 16.4333 161.209 17.66C161.209 18.4333 161.062 18.82 160.769 18.82H158.329L151.129 18.9C151.049 19.4067 151.009 19.9667 151.009 20.58C151.009 22.8733 151.542 24.6867 152.609 26.02C153.702 27.3533 155.196 28.02 157.089 28.02C157.756 28.02 158.449 27.9267 159.169 27.74C159.889 27.5533 160.542 27.2733 161.129 26.9L161.209 26.86ZM154.609 14.5C153.809 14.5 153.116 14.82 152.529 15.46C151.942 16.1 151.516 16.98 151.249 18.1L156.929 17.98C156.849 15.66 156.076 14.5 154.609 14.5Z" fill="white"/>
<path d="M174.368 13.66C174.981 13.66 175.568 13.8867 176.128 14.34C176.714 14.7667 177.008 15.2867 177.008 15.9C177.008 16.46 176.834 16.9267 176.488 17.3C176.141 17.6467 175.688 17.82 175.128 17.82C174.728 17.82 174.394 17.74 174.128 17.58C173.888 17.42 173.634 17.18 173.368 16.86C173.128 16.5933 172.914 16.4067 172.728 16.3C172.568 16.1667 172.368 16.1 172.128 16.1C171.861 16.1 171.568 16.2067 171.248 16.42C170.954 16.6067 170.488 17.02 169.848 17.66V26.26C169.848 27.3267 170.101 28.06 170.608 28.46C171.114 28.8333 172.048 29.02 173.408 29.02C173.514 29.02 173.568 29.1 173.568 29.26C173.568 29.42 173.514 29.5 173.408 29.5C172.474 29.5 171.741 29.4867 171.208 29.46L167.968 29.42L165.608 29.46C165.208 29.4867 164.661 29.5 163.968 29.5C163.888 29.5 163.848 29.42 163.848 29.26C163.848 29.1 163.888 29.02 163.968 29.02C164.794 29.02 165.354 28.8333 165.648 28.46C165.941 28.06 166.088 27.3267 166.088 26.26V18.74C166.088 17.9133 165.981 17.3133 165.768 16.94C165.581 16.54 165.274 16.34 164.848 16.34C164.394 16.34 163.754 16.5267 162.928 16.9H162.848C162.768 16.9 162.701 16.8333 162.648 16.7C162.621 16.5667 162.634 16.4867 162.688 16.46L168.248 13.74C168.408 13.6867 168.501 13.66 168.528 13.66C168.821 13.66 169.088 13.94 169.328 14.5C169.594 15.0333 169.754 15.7667 169.808 16.7C170.901 15.58 171.794 14.7933 172.488 14.34C173.208 13.8867 173.834 13.66 174.368 13.66Z" fill="white"/>
<rect width="11" height="11" fill="#352B2A"/>
<rect x="11.002" width="11" height="11" fill="#FAD87A"/>
<rect x="22" width="11" height="11" fill="#D9D9D9"/>
<rect x="22" width="11" height="11" fill="#F19662"/>
<rect x="11.002" y="11.0003" width="11" height="11" fill="#397B53"/>
<rect x="22" y="11.0003" width="11" height="11" fill="#9FC6FB"/>
<rect x="22" y="22.0011" width="11" height="11" fill="#F2A2A6"/>
</svg>
